<svg xmlns="http://www.w3.org/2000/svg" xmlns:xlink="http://www.w3.org/1999/xlink" width="334.138" height="69.01" viewBox="0 0 334.138 69.01"><defs><style>.a{fill:none;}.b{clip-path:url(#a);}.c{fill:#00b4c8;}</style><clipPath id="a"><rect class="a" width="334.138" height="69.01"/></clipPath></defs><g transform="translate(0 0)"><g class="b" transform="translate(0 0)"><path class="c" d="M86.361,37.785,71.444,11.207H62.121V54.592h9.3v-26.2L86.467,54.74,101.31,28.5V54.592h9.3V11.207h-9.076ZM219.229,40.6,197.492,11.074h-9.318V54.74h9.412V25.261L219.368,54.74h9.22V11.074h-9.359ZM132.264,54.74h34.351V46.824H141.568V36.866h18.984V28.949H141.568V18.991h25.047V11.074H132.264ZM293.151,8.9a37.35,37.35,0,0,0-8.134-6.164l-2.826,5.373a31.126,31.126,0,0,1,11.749,11.751l5.375-2.828A37.376,37.376,0,0,0,293.151,8.9m-24.011,1a23.01,23.01,0,1,0,23.01,23.01A23.01,23.01,0,0,0,269.141,9.9m0,36.623a13.614,13.614,0,1,1,13.613-13.613,13.613,13.613,0,0,1-13.613,13.613" transform="translate(34.823 1.531)"/><path class="c" d="M30.462,27.243l3.586,3.182a.689.689,0,0,0,.916,0L58.382,9.6A34.622,34.622,0,0,0,53.441,5.66L30.461,26.213a.689.689,0,0,0,0,1.03M6.05,34.5a14.486,14.486,0,0,0-.12-1.782A14.675,14.675,0,0,0,1.7,24.106l-.08-.08a34.6,34.6,0,0,0,0,20.954l.08-.08A14.683,14.683,0,0,0,5.93,36.285,14.261,14.261,0,0,0,6.05,34.5m5.963-23.636h0l4.555,4.043a.691.691,0,0,0,.918,0L34.262,0A34.406,34.406,0,0,0,21.331,2.6l-.053.047a35.874,35.874,0,0,0-10.67,6.966v0Zm1.238,37.983a26.115,26.115,0,0,0,4.214-12.283c.059-.76.087-1.436.087-2.063s-.028-1.3-.087-2.063c-.034-.426-.084-.875-.15-1.361,1.973,1.743,5.042,5.395,3.789,9.991a.68.68,0,0,0,1.1.694L29.9,34.93a.69.69,0,0,0,0-1.032L10.183,16.352c-.593-.613-1.133-1.131-1.648-1.579s-1-.846-1.464-1.191a34.476,34.476,0,0,0-3.357,5.351l1.685,1.5c.506.5.905.932,1.256,1.353A19.873,19.873,0,0,1,11.27,34.5,19.873,19.873,0,0,1,6.656,47.215a19.993,19.993,0,0,1-2.94,2.859,34.468,34.468,0,0,0,3.355,5.351c.467-.351.946-.741,1.464-1.192a26.552,26.552,0,0,0,2.679-2.7,26.623,26.623,0,0,0,2.037-2.684m8.28-29.534,3.575,3.173a.689.689,0,0,0,.918,0L48.1,2.779A34.176,34.176,0,0,0,41.3.668L21.53,18.284a.69.69,0,0,0,0,1.032m45.856,4.71-.083.081c-.3.3-.615.645-.949,1.047A14.623,14.623,0,0,0,67.3,44.9l.081.08a34.616,34.616,0,0,0,0-20.955m-32.53,44.02-.17-.22a54.175,54.175,0,0,1-3.4-4.886c-.641-1.044-1.468-2.594-1.954-3.524a.689.689,0,0,0-1.071-.192L20.592,66.08a34.373,34.373,0,0,0,13.914,2.931c.367,0,.73-.017,1.1-.028l-.112-.137c-.215-.264-.423-.532-.632-.8m27.5-20.83A19.867,19.867,0,0,1,57.739,34.5c0-.312.019-.623.037-.932l.014-.234A19.69,19.69,0,0,1,62.354,21.79c.351-.42.741-.821,1.124-1.209a20.36,20.36,0,0,1,1.816-1.65,34.445,34.445,0,0,0-3.354-5.35l-.012.009c-.471.354-.947.741-1.451,1.181-.114.1-49.821,44.462-49.911,44.542l-.014.014a34.7,34.7,0,0,0,5.017,4.018L51.692,31.1c-.066.476-.112.918-.145,1.336-.061.757-.089,1.433-.089,2.063s.028,1.308.089,2.063c.045.576.111,1.16.2,1.784a25.848,25.848,0,0,0,4.008,10.5,26.383,26.383,0,0,0,4.718,5.385c.531.46,1.01.849,1.462,1.191A34.477,34.477,0,0,0,65.3,50.074a19.923,19.923,0,0,1-2.942-2.859m-8.126,8.174A37.423,37.423,0,0,1,50.1,49.563a30.163,30.163,0,0,1-2.576-6.255A.689.689,0,0,0,46.4,43l-3.975,3.555a.686.686,0,0,0-.187.757c.292.768.894,2.331,1.23,3.052a37.5,37.5,0,0,0,8.1,11.3c.652.626,1.266,1.177,1.874,1.689a34.669,34.669,0,0,0,5.022-4.02l-.028-.022a31.782,31.782,0,0,1-4.206-3.915m-9.146,7a57.856,57.856,0,0,1-3.864-5.254,40.11,40.11,0,0,1-2.949-5.652.688.688,0,0,0-1.091-.234l-3.83,3.427a.688.688,0,0,0-.162.813c.3.629.836,1.726,1.117,2.247a49.636,49.636,0,0,0,3.432,5.462,49.142,49.142,0,0,0,3.9,4.752l.251.265a34.2,34.2,0,0,0,6.692-2.2l-.072-.066a43.271,43.271,0,0,1-3.421-3.558" transform="translate(0 -0.001)"/></g></g></svg>