<svg xmlns="http://www.w3.org/2000/svg" width="12.157" height="15.532" viewBox="0 0 12.157 15.532">
  <path id="パス_3" data-name="パス 3" d="M11.926,26.794a5.952,5.952,0,0,0-11.111,0,6.532,6.532,0,0,0,1.094,6.872l4.11,4.681a.46.46,0,0,0,.7,0l4.11-4.681a6.532,6.532,0,0,0,1.094-6.872m-1.894,6.133L6.371,37.1l-3.662-4.17a5.362,5.362,0,0,1-.9-5.643,4.89,4.89,0,0,1,9.124,0,5.362,5.362,0,0,1-.9,5.643M6.371,27.96a1.466,1.466,0,1,0,1.467,1.467A1.467,1.467,0,0,0,6.371,27.96" transform="translate(-0.292 -22.978)" fill="#00a1c2"/>
</svg>
